<svg height="512pt" viewBox="-19 0 512 512.0003" width="512pt" xmlns="http://www.w3.org/2000/svg" xmlns:xlink="http://www.w3.org/1999/xlink"><linearGradient id="a" gradientTransform="matrix(.318429 0 0 -.318429 -19.336275 503.50197)" gradientUnits="userSpaceOnUse" x1="60.7241" x2="1547.1714" y1="777.2609" y2="777.2609"><stop offset="0" stop-color="#41dfd0"/><stop offset="1" stop-color="#ee83ef"/></linearGradient><path d="m470.683594 257.03125-52.546875-101.996094c-4.757813-11.222656-14.066407-19.890625-25.601563-23.835937v-71.464844c0-32.992187-26.742187-59.734375-59.730468-59.734375-32.992188 0-59.734376 26.742188-59.734376 59.734375v70.648437l-1.605468.535157c-14.054688 4.734375-24.667969 16.394531-28.066406 30.832031l-13.191407 55.464844-12.800781-55.378906c-3.386719-14.460938-14.007812-26.140626-28.082031-30.882813l-7.441407-2.484375c-.902343-.085938-1.800781-.242188-2.679687-.46875h-34.132813v-9.746094c12.03125-3.128906 21.40625-12.566406 24.457032-24.617187.375.101562.757812.179687 1.144531.230469h8.53125c4.714844 0 8.535156-3.820313 8.535156-8.535157v-34.132812c-.03125-23.550781-19.117187-42.636719-42.667969-42.664063h-17.066406c-23.554687.027344-42.640625 19.113282-42.667968 42.664063v34.132812c0 4.714844 3.820312 8.535157 8.535156 8.535157h8.53125c.386718-.050782.769531-.128907 1.144531-.230469 3.050781 12.050781 12.425781 21.488281 24.457031 24.617187v9.746094h-34.132812c-.0625 0-.113282 0-.171875 0-.640625-.054688-1.285157-.03125-1.917969.066406l-7.75 1.195313c-14.664062 2.339843-27.078125 12.082031-32.828125 25.773437l-36.113281 86.457032-10.410156 14.210937c-7.898438 10.78125-5.5625 25.921875 5.21875 33.824219 10.785156 7.898437 25.925781 5.558594 33.824218-5.222656 1.046875-1.425782 1.933594-2.960938 2.640625-4.582032l5.265625-12.007812c4.324219 1.769531 9.261719-.296875 11.03125-4.621094.023438-.050781.042969-.105469.0625-.15625l22.613282-57.964844v51.027344c0 4.714844 3.820312 8.535156 8.535156 8.535156h4.460937l-12.390625 30.957032c-.398437 1.011718-.605468 2.089843-.605468 3.175781v162.132812c-14.136719 0-25.597657 11.460938-25.597657 25.597657 0 14.140624 11.460938 25.601562 25.597657 25.601562h102.402343c14.136719 0 25.597657-11.460938 25.597657-25.601562 0-14.136719-11.460938-25.597657-25.597657-25.597657v-162.132812c0-1.089844-.207031-2.164063-.605469-3.175781l-12.390624-30.957032h4.460937c3.203125-.023437 6.121094-1.855468 7.535156-4.730468l1.136719 6.257812c.738281 4.054688 4.269531 7.003906 8.394531 7.003906.613281-.011718 1.222657-.085937 1.820313-.222656l3.164062 12.699219c3.234375 12.957031 16.359375 20.84375 29.316406 17.609375.011719 0 .019532-.003906.03125-.003906 3.625-.917969 6.988282-2.671876 9.820313-5.121094 8.441406-.914063 15.511719-6.808594 17.917969-14.953125l25.347656-77.277344 6.449219 10.046875v37.742188l-16.367188 26.597656c-24.957031 40.585937-41.359375 85.847656-48.195312 133 0 .1875-.078125.351562-.085938.539062-2.394531 16.5-3.605469 33.152344-3.617187 49.824219v39.917969c0 4.714844 3.820312 8.535156 8.53125 8.535156h204.800781c4.714844 0 8.535156-3.820312 8.535156-8.535156v-39.917969c0-9.597656-.523437-19.148437-1.296875-28.664063-.011718-.488281-.0625-.976562-.15625-1.457031-3.796875-44.03125-15.917968-86.945312-35.71875-126.457031-.175781-.46875-.390625-.925781-.648437-1.355469-4.371094-8.628906-8.988281-17.144531-14.082031-25.429687l-16.367188-26.597656v-37.691407l8.21875-12.410156c27.304688 45.117187 44.621094 75.332031 44.636719 75.34375 3.105469 6.023437 8.628906 10.441406 15.191406 12.148437 1.949219.507813 3.957031.765626 5.972656.761719 13.15625.007813 23.832031-10.652343 23.839844-23.8125 0-3.792969-.902344-7.527343-2.632813-10.902343zm-362.445313-205.394531c-3.484375 1.160156-5.835937 4.421875-5.835937 8.097656v-8.535156c0-14.136719 11.460937-25.597657 25.601562-25.597657h17.066406c14.136719 0 25.601563 11.460938 25.601563 25.597657v8.535156c0-3.675781-2.351563-6.9375-5.839844-8.097656l-25.597656-8.535157c-1.75-.582031-3.644531-.582031-5.394531 0zm11.230469 33.695312v-19.445312l17.066406-5.691407 17.070313 5.691407v19.445312c0 9.425781-7.644531 17.066407-17.070313 17.066407-9.425781 0-17.066406-7.640626-17.066406-17.066407zm187.734375 136.535157h51.199219v25.597656h-51.199219zm55.152344-17.066407h-59.027344l-12.796875-19.953125 5.578125-39.78125h4.824219l23.113281 38.527344c2.425781 4.042969 7.667969 5.351562 11.710937 2.925781 1.199219-.71875 2.203126-1.722656 2.925782-2.925781l23.132812-38.527344h5.207032l7.976562 40.695313zm-48.078125-156.910156v-5.222656c0-9.425781 7.640625-17.066407 17.066406-17.066407s17.066406 7.640626 17.066406 17.066407v5.222656l-14.367187-4.789063c-1.753907-.578124-3.648438-.578124-5.402344 0zm0 17.996094 17.066406-5.691407 17.066406 5.691407v19.445312c0 9.425781-7.640625 17.066407-17.066406 17.066407s-17.066406-7.640626-17.066406-17.066407zm27.589844 79.179687-10.523438 17.542969-10.488281-17.542969zm33.601562-85.332031v68.375l-.449219-.050781c-.164062 0-.308593 0-.460937 0-.15625 0-.359375-.058594-.554688-.058594h-34.132812v-9.746094c15.023437-3.878906 25.539062-17.402344 25.597656-32.921875v-42.664062c.003906-4.542969-.90625-9.035157-2.671875-13.21875 8.109375 7.992187 12.671875 18.898437 12.671875 30.285156zm-77.335938-24.6875c-.59375 2.496094-.902343 5.054687-.921874 7.621094v42.664062c.058593 15.519531 10.574218 29.042969 25.601562 32.921875v9.746094h-32.675781v-68.265625c.015625-8.863281 2.8125-17.5 7.996093-24.6875zm-127.460937 135.621094v76.796875h-25.601563v-65.902344l21.894532-36.496094h3.707031zm-23.605469-25.601563-10.53125 17.542969-10.527344-17.542969zm-44.664062 0h3.703125l21.898437 36.496094v65.902344h-25.601562zm-71.679688 127.8125c-1.574218 3.605469-5.773437 5.253906-9.378906 3.679688-1.992188-.871094-3.476562-2.597656-4.035156-4.695313-.578125-2.085937-.15625-4.320312 1.136718-6.058593l6.960938-9.515626 10.554688 4.632813zm19.347656-24.40625-16.402343-7.191406 33.28125-79.675781c3.296875-7.726563 10.164062-13.351563 18.386719-15.0625v11.417969zm26.734376 237.925782c0-4.710938 3.820312-8.53125 8.53125-8.53125h42.667968v17.066406h-42.667968c-4.710938 0-8.53125-3.820313-8.53125-8.535156zm119.464843 0c0 4.714843-3.820312 8.535156-8.53125 8.535156h-42.667969v-17.066406h42.667969c4.710938 0 8.53125 3.820312 8.53125 8.53125zm-25.597656-186.09375v160.496093h-25.601563v-136.535156c0-4.710937-3.820312-8.53125-8.535156-8.53125-4.710937 0-8.53125 3.820313-8.53125 8.53125v136.535156h-25.601562v-160.496093l14.3125-35.769532h39.644531zm17.066406-130.40625v-21.171876c6.589844 3.488282 11.347657 9.65625 13.054688 16.914063l19.414062 84.113281-17.171875 4.265625zm33.328125 115.890624c-1.621094-.96875-2.792968-2.550781-3.25-4.386718l-3.164062-12.671875 11.175781-2.789063 5.285156 10.546875c1.753907 3.527344.3125 7.808594-3.214843 9.5625-2.171876 1.082031-4.746094.984375-6.832032-.261719zm24.519532-18.515624-6.648438-13.21875 21.078125-88.414063c2.035156-8.675781 8.40625-15.6875 16.851563-18.535156l1.785156-.589844-4.898438 34.859375zm181.085937 227.660156h-187.734375v-31.386719c.03125-14.25.976562-28.484375 2.832031-42.613281l29.644531-9.113282c22.351563-6.910156 43.613282-16.949218 63.148438-29.824218 22.113281 24.394531 49.714844 43.171875 80.527344 54.78125l10.777344 4.039062c.535156 7.554688.800781 15.132813.800781 22.730469v31.386719zm-2.742187-73.078125-2.832032-1.058594c-27.628906-10.398437-52.464844-27.082031-72.53125-48.734375 12.671875-9.640625 24.386719-20.476562 34.984375-32.359375l12.800781-14.4375c14.035157 30.613281 23.332032 63.179687 27.578126 96.589844zm-35.539063-113.238281-17.546875 19.746093c-28.015625 31.515625-64.144531 54.742188-104.445312 67.148438l-21.582032 6.636719c7.460938-40.019532 22.214844-78.332032 43.519532-113.023438l15.105468-24.59375h58.726563l15.136719 24.59375c3.898437 6.363281 7.59375 12.859375 11.085937 19.492188zm64.851563-35.0625c-1.59375 1.066406-3.570313 1.398437-5.425782.910156-1.980468-.527344-3.621094-1.910156-4.480468-3.769532-.203126-.351562-20.285157-35.355468-51.199219-86.273437l-7.433594-37.648437c8.136719 1.976562 14.832031 7.730468 18.003906 15.480468l52.796875 102.613282c1.5625 3.050781.582032 6.792968-2.277344 8.6875zm-245.9375-224.855469c-3.273438-3.390625-3.179688-8.792969.207031-12.066407 3.308593-3.191406 8.550781-3.191406 11.859375 0l11.03125 11.035157 11.035156-11.035157c3.273438-3.390624 8.675781-3.484374 12.066406-.207031 3.390625 3.273438 3.484375 8.675781.207032 12.066407-.066407.070312-.136719.140624-.207032.207031l-17.066406 17.066406c-3.332031 3.332031-8.734375 3.332031-12.066406 0zm0 0" fill="url(#a)"/></svg>